<?xml version="1.0" encoding="UTF-8" standalone="no"?>
<!DOCTYPE svg PUBLIC "-//W3C//DTD SVG 1.1//EN"
 "http://www.w3.org/Graphics/SVG/1.1/DTD/svg11.dtd">
<!-- Generated by graphviz version 12.1.2 (20240928.0832)
 -->
<!-- Title: public.services Pages: 1 -->
<svg width="815pt" height="1403pt"
 viewBox="0.00 0.00 815.16 1402.80" xmlns="http://www.w3.org/2000/svg" xmlns:xlink="http://www.w3.org/1999/xlink">
<g id="graph0" class="graph" transform="scale(1 1) rotate(0) translate(4 1398.8)">
<title>public.services</title>
<polygon fill="white" stroke="none" points="-4,4 -4,-1398.8 811.16,-1398.8 811.16,4 -4,4"/>
<!-- public.services -->
<g id="node1" class="node">
<title>public.services</title>
<polygon fill="#efefef" stroke="none" points="46.2,-1313 46.2,-1348.6 336.45,-1348.6 336.45,-1313 46.2,-1313"/>
<polygon fill="none" stroke="black" points="46.2,-1313 46.2,-1348.6 336.45,-1348.6 336.45,-1313 46.2,-1313"/>
<text text-anchor="start" x="75.35" y="-1326.4" font-family="Arial Bold" font-size="18.00">public.services</text>
<text text-anchor="start" x="182.81" y="-1326.4" font-family="Arial" font-size="14.00">    </text>
<text text-anchor="start" x="213.93" y="-1326.4" font-family="Arial" font-size="14.00" fill="#666666">[BASE TABLE]</text>
<polygon fill="none" stroke="black" points="46.2,-1282.2 46.2,-1313 336.45,-1313 336.45,-1282.2 46.2,-1282.2"/>
<text text-anchor="start" x="53.2" y="-1294.4" font-family="Arial" font-size="14.00">id </text>
<text text-anchor="start" x="67.99" y="-1294.4" font-family="Arial" font-size="14.00" fill="#666666">[bigint]</text>
<polygon fill="none" stroke="black" points="46.2,-1251.4 46.2,-1282.2 336.45,-1282.2 336.45,-1251.4 46.2,-1251.4"/>
<text text-anchor="start" x="53.2" y="-1263.6" font-family="Arial" font-size="14.00">user </text>
<text text-anchor="start" x="84.32" y="-1263.6" font-family="Arial" font-size="14.00" fill="#666666">[varchar(255)]</text>
<polygon fill="none" stroke="black" points="46.2,-1220.6 46.2,-1251.4 336.45,-1251.4 336.45,-1220.6 46.2,-1220.6"/>
<text text-anchor="start" x="53.2" y="-1232.8" font-family="Arial" font-size="14.00">password </text>
<text text-anchor="start" x="117.01" y="-1232.8" font-family="Arial" font-size="14.00" fill="#666666">[varchar(255)]</text>
<polygon fill="none" stroke="black" points="46.2,-1189.8 46.2,-1220.6 336.45,-1220.6 336.45,-1189.8 46.2,-1189.8"/>
<text text-anchor="start" x="53.2" y="-1202" font-family="Arial" font-size="14.00">host </text>
<text text-anchor="start" x="83.55" y="-1202" font-family="Arial" font-size="14.00" fill="#666666">[varchar(255)]</text>
<polygon fill="none" stroke="black" points="46.2,-1159 46.2,-1189.8 336.45,-1189.8 336.45,-1159 46.2,-1159"/>
<text text-anchor="start" x="53.2" y="-1171.2" font-family="Arial" font-size="14.00">path </text>
<text text-anchor="start" x="84.34" y="-1171.2" font-family="Arial" font-size="14.00" fill="#666666">[varchar(255)]</text>
<polygon fill="none" stroke="black" points="46.2,-1128.2 46.2,-1159 336.45,-1159 336.45,-1128.2 46.2,-1128.2"/>
<text text-anchor="start" x="53.2" y="-1140.4" font-family="Arial" font-size="14.00">name </text>
<text text-anchor="start" x="92.11" y="-1140.4" font-family="Arial" font-size="14.00" fill="#666666">[varchar(255)]</text>
<polygon fill="none" stroke="black" points="46.2,-1097.4 46.2,-1128.2 336.45,-1128.2 336.45,-1097.4 46.2,-1097.4"/>
<text text-anchor="start" x="53.2" y="-1109.6" font-family="Arial" font-size="14.00">org_id </text>
<text text-anchor="start" x="96.01" y="-1109.6" font-family="Arial" font-size="14.00" fill="#666666">[bigint]</text>
<polygon fill="none" stroke="black" points="46.2,-1066.6 46.2,-1097.4 336.45,-1097.4 336.45,-1066.6 46.2,-1066.6"/>
<text text-anchor="start" x="53.2" y="-1078.8" font-family="Arial" font-size="14.00">inserted_at </text>
<text text-anchor="start" x="126.36" y="-1078.8" font-family="Arial" font-size="14.00" fill="#666666">[timestamp(0) without time zone]</text>
<polygon fill="none" stroke="black" points="46.2,-1035.8 46.2,-1066.6 336.45,-1066.6 336.45,-1035.8 46.2,-1035.8"/>
<text text-anchor="start" x="53.2" y="-1048" font-family="Arial" font-size="14.00">updated_at </text>
<text text-anchor="start" x="127.16" y="-1048" font-family="Arial" font-size="14.00" fill="#666666">[timestamp(0) without time zone]</text>
<polygon fill="none" stroke="black" points="46.2,-1005 46.2,-1035.8 336.45,-1035.8 336.45,-1005 46.2,-1005"/>
<text text-anchor="start" x="53.2" y="-1017.2" font-family="Arial" font-size="14.00">sending_from </text>
<text text-anchor="start" x="141.92" y="-1017.2" font-family="Arial" font-size="14.00" fill="#666666">[varchar(255)]</text>
<polygon fill="none" stroke="black" points="46.2,-974.2 46.2,-1005 336.45,-1005 336.45,-974.2 46.2,-974.2"/>
<text text-anchor="start" x="53.2" y="-986.4" font-family="Arial" font-size="14.00">transactional_email_budget </text>
<text text-anchor="start" x="228.32" y="-986.4" font-family="Arial" font-size="14.00" fill="#666666">[integer]</text>
<polygon fill="none" stroke="black" stroke-width="3" points="44.7,-972.7 44.7,-1350.1 337.95,-1350.1 337.95,-972.7 44.7,-972.7"/>
</g>
<!-- public.orgs -->
<g id="node2" class="node">
<title>public.orgs</title>
<polygon fill="#efefef" stroke="none" points="46.2,-813.2 46.2,-848.8 336.45,-848.8 336.45,-813.2 46.2,-813.2"/>
<polygon fill="none" stroke="black" points="46.2,-813.2 46.2,-848.8 336.45,-848.8 336.45,-813.2 46.2,-813.2"/>
<text text-anchor="start" x="88.84" y="-826.6" font-family="Arial Bold" font-size="18.00">public.orgs</text>
<text text-anchor="start" x="169.33" y="-826.6" font-family="Arial" font-size="14.00">    </text>
<text text-anchor="start" x="200.44" y="-826.6" font-family="Arial" font-size="14.00" fill="#666666">[BASE TABLE]</text>
<polygon fill="none" stroke="black" points="46.2,-782.4 46.2,-813.2 336.45,-813.2 336.45,-782.4 46.2,-782.4"/>
<text text-anchor="start" x="53.2" y="-794.6" font-family="Arial" font-size="14.00">id </text>
<text text-anchor="start" x="67.99" y="-794.6" font-family="Arial" font-size="14.00" fill="#666666">[bigint]</text>
<polygon fill="none" stroke="black" points="46.2,-751.6 46.2,-782.4 336.45,-782.4 336.45,-751.6 46.2,-751.6"/>
<text text-anchor="start" x="53.2" y="-763.8" font-family="Arial" font-size="14.00">name </text>
<text text-anchor="start" x="92.11" y="-763.8" font-family="Arial" font-size="14.00" fill="#666666">[citext]</text>
<polygon fill="none" stroke="black" points="46.2,-720.8 46.2,-751.6 336.45,-751.6 336.45,-720.8 46.2,-720.8"/>
<text text-anchor="start" x="53.2" y="-733" font-family="Arial" font-size="14.00">title </text>
<text text-anchor="start" x="78.88" y="-733" font-family="Arial" font-size="14.00" fill="#666666">[varchar(255)]</text>
<polygon fill="none" stroke="black" points="46.2,-690 46.2,-720.8 336.45,-720.8 336.45,-690 46.2,-690"/>
<text text-anchor="start" x="53.2" y="-702.2" font-family="Arial" font-size="14.00">inserted_at </text>
<text text-anchor="start" x="126.36" y="-702.2" font-family="Arial" font-size="14.00" fill="#666666">[timestamp(0) without time zone]</text>
<polygon fill="none" stroke="black" points="46.2,-659.2 46.2,-690 336.45,-690 336.45,-659.2 46.2,-659.2"/>
<text text-anchor="start" x="53.2" y="-671.4" font-family="Arial" font-size="14.00">updated_at </text>
<text text-anchor="start" x="127.16" y="-671.4" font-family="Arial" font-size="14.00" fill="#666666">[timestamp(0) without time zone]</text>
<polygon fill="none" stroke="black" points="46.2,-628.4 46.2,-659.2 336.45,-659.2 336.45,-628.4 46.2,-628.4"/>
<text text-anchor="start" x="53.2" y="-640.6" font-family="Arial" font-size="14.00">custom_supporter_confirm </text>
<text text-anchor="start" x="222.83" y="-640.6" font-family="Arial" font-size="14.00" fill="#666666">[boolean]</text>
<polygon fill="none" stroke="black" points="46.2,-597.6 46.2,-628.4 336.45,-628.4 336.45,-597.6 46.2,-597.6"/>
<text text-anchor="start" x="53.2" y="-609.8" font-family="Arial" font-size="14.00">custom_action_confirm </text>
<text text-anchor="start" x="201.04" y="-609.8" font-family="Arial" font-size="14.00" fill="#666666">[boolean]</text>
<polygon fill="none" stroke="black" points="46.2,-566.8 46.2,-597.6 336.45,-597.6 336.45,-566.8 46.2,-566.8"/>
<text text-anchor="start" x="53.2" y="-579" font-family="Arial" font-size="14.00">custom_action_deliver </text>
<text text-anchor="start" x="196.39" y="-579" font-family="Arial" font-size="14.00" fill="#666666">[boolean]</text>
<polygon fill="none" stroke="black" points="46.2,-536 46.2,-566.8 336.45,-566.8 336.45,-536 46.2,-536"/>
<text text-anchor="start" x="53.2" y="-548.2" font-family="Arial" font-size="14.00">contact_schema </text>
<text text-anchor="start" x="159.03" y="-548.2" font-family="Arial" font-size="14.00" fill="#666666">[integer]</text>
<polygon fill="none" stroke="black" points="46.2,-505.2 46.2,-536 336.45,-536 336.45,-505.2 46.2,-505.2"/>
<text text-anchor="start" x="53.2" y="-517.4" font-family="Arial" font-size="14.00">email_backend_id </text>
<text text-anchor="start" x="169.94" y="-517.4" font-family="Arial" font-size="14.00" fill="#666666">[bigint]</text>
<polygon fill="none" stroke="black" points="46.2,-474.4 46.2,-505.2 336.45,-505.2 336.45,-474.4 46.2,-474.4"/>
<text text-anchor="start" x="53.2" y="-486.6" font-family="Arial" font-size="14.00">email_from </text>
<text text-anchor="start" x="126.33" y="-486.6" font-family="Arial" font-size="14.00" fill="#666666">[varchar(255)]</text>
<polygon fill="none" stroke="black" points="46.2,-443.6 46.2,-474.4 336.45,-474.4 336.45,-443.6 46.2,-443.6"/>
<text text-anchor="start" x="53.2" y="-455.8" font-family="Arial" font-size="14.00">supporter_confirm </text>
<text text-anchor="start" x="169.92" y="-455.8" font-family="Arial" font-size="14.00" fill="#666666">[boolean]</text>
<polygon fill="none" stroke="black" points="46.2,-412.8 46.2,-443.6 336.45,-443.6 336.45,-412.8 46.2,-412.8"/>
<text text-anchor="start" x="53.2" y="-425" font-family="Arial" font-size="14.00">supporter_confirm_template </text>
<text text-anchor="start" x="231.4" y="-425" font-family="Arial" font-size="14.00" fill="#666666">[varchar(255)]</text>
<polygon fill="none" stroke="black" points="46.2,-382 46.2,-412.8 336.45,-412.8 336.45,-382 46.2,-382"/>
<text text-anchor="start" x="53.2" y="-394.2" font-family="Arial" font-size="14.00">config </text>
<text text-anchor="start" x="94.45" y="-394.2" font-family="Arial" font-size="14.00" fill="#666666">[jsonb]</text>
<polygon fill="none" stroke="black" points="46.2,-351.2 46.2,-382 336.45,-382 336.45,-351.2 46.2,-351.2"/>
<text text-anchor="start" x="53.2" y="-363.4" font-family="Arial" font-size="14.00">high_security </text>
<text text-anchor="start" x="139.58" y="-363.4" font-family="Arial" font-size="14.00" fill="#666666">[boolean]</text>
<polygon fill="none" stroke="black" points="46.2,-320.4 46.2,-351.2 336.45,-351.2 336.45,-320.4 46.2,-320.4"/>
<text text-anchor="start" x="53.2" y="-332.6" font-family="Arial" font-size="14.00">action_schema_version </text>
<text text-anchor="start" x="204.17" y="-332.6" font-family="Arial" font-size="14.00" fill="#666666">[smallint]</text>
<polygon fill="none" stroke="black" points="46.2,-289.6 46.2,-320.4 336.45,-320.4 336.45,-289.6 46.2,-289.6"/>
<text text-anchor="start" x="53.2" y="-301.8" font-family="Arial" font-size="14.00">event_backend_id </text>
<text text-anchor="start" x="170.74" y="-301.8" font-family="Arial" font-size="14.00" fill="#666666">[bigint]</text>
<polygon fill="none" stroke="black" points="46.2,-258.8 46.2,-289.6 336.45,-289.6 336.45,-258.8 46.2,-258.8"/>
<text text-anchor="start" x="53.2" y="-271" font-family="Arial" font-size="14.00">custom_event_deliver </text>
<text text-anchor="start" x="193.28" y="-271" font-family="Arial" font-size="14.00" fill="#666666">[boolean]</text>
<polygon fill="none" stroke="black" points="46.2,-228 46.2,-258.8 336.45,-258.8 336.45,-228 46.2,-228"/>
<text text-anchor="start" x="53.2" y="-240.2" font-family="Arial" font-size="14.00">doi_thank_you </text>
<text text-anchor="start" x="148.16" y="-240.2" font-family="Arial" font-size="14.00" fill="#666666">[boolean]</text>
<polygon fill="none" stroke="black" points="46.2,-197.2 46.2,-228 336.45,-228 336.45,-197.2 46.2,-197.2"/>
<text text-anchor="start" x="53.2" y="-209.4" font-family="Arial" font-size="14.00">storage_backend_id </text>
<text text-anchor="start" x="183.19" y="-209.4" font-family="Arial" font-size="14.00" fill="#666666">[bigint]</text>
<polygon fill="none" stroke="black" points="46.2,-166.4 46.2,-197.2 336.45,-197.2 336.45,-166.4 46.2,-166.4"/>
<text text-anchor="start" x="53.2" y="-178.6" font-family="Arial" font-size="14.00">detail_backend_id </text>
<text text-anchor="start" x="169.96" y="-178.6" font-family="Arial" font-size="14.00" fill="#666666">[bigint]</text>
<polygon fill="none" stroke="black" points="46.2,-135.6 46.2,-166.4 336.45,-166.4 336.45,-135.6 46.2,-135.6"/>
<text text-anchor="start" x="53.2" y="-147.8" font-family="Arial" font-size="14.00">push_backend_id </text>
<text text-anchor="start" x="166.85" y="-147.8" font-family="Arial" font-size="14.00" fill="#666666">[bigint]</text>
<polygon fill="none" stroke="black" points="46.2,-104.8 46.2,-135.6 336.45,-135.6 336.45,-104.8 46.2,-104.8"/>
<text text-anchor="start" x="53.2" y="-117" font-family="Arial" font-size="14.00">reply_enabled </text>
<text text-anchor="start" x="145.05" y="-117" font-family="Arial" font-size="14.00" fill="#666666">[boolean]</text>
<polygon fill="none" stroke="black" points="46.2,-74 46.2,-104.8 336.45,-104.8 336.45,-74 46.2,-74"/>
<text text-anchor="start" x="53.2" y="-86.2" font-family="Arial" font-size="14.00">sender_rewrite </text>
<text text-anchor="start" x="149.69" y="-86.2" font-family="Arial" font-size="14.00" fill="#666666">[boolean]</text>
<polygon fill="none" stroke="black" points="46.2,-43.2 46.2,-74 336.45,-74 336.45,-43.2 46.2,-43.2"/>
<text text-anchor="start" x="53.2" y="-55.4" font-family="Arial" font-size="14.00">transactional_email_backend_id </text>
<text text-anchor="start" x="257.11" y="-55.4" font-family="Arial" font-size="14.00" fill="#666666">[bigint]</text>
</g>
<!-- public.services&#45;&gt;public.orgs -->
<g id="edge7" class="edge">
<title>public.services:org_id&#45;&gt;public.orgs:id</title>
<path fill="none" stroke="black" d="M347.58,-1110.45C407.27,-1081.62 403.9,-797.8 337.45,-797.8"/>
<polygon fill="black" stroke="black" points="347.52,-1110.46 336.76,-1108.34 342.32,-1111.67 338.11,-1112.65 338.11,-1112.65 338.11,-1112.65 342.32,-1111.67 338.8,-1117.11 347.52,-1110.46"/>
<text text-anchor="start" x="344.45" y="-1122.8" font-family="Arial" font-size="10.00">FOREIGN KEY (org_id) REFERENCES orgs(id) ON DELETE CASCADE</text>
</g>
<!-- public.orgs&#45;&gt;public.services -->
<g id="edge1" class="edge">
<title>public.orgs:detail_backend_id&#45;&gt;public.services:id</title>
<path fill="none" stroke="black" d="M345.43,-188.35C399.32,-279.8 396.66,-1297.6 337.45,-1297.6"/>
<polygon fill="black" stroke="black" points="345.44,-188.36 340.57,-178.53 341.32,-184.97 337.97,-182.22 337.97,-182.22 337.97,-182.22 341.32,-184.97 334.86,-185.49 345.44,-188.36"/>
<text text-anchor="start" x="344.45" y="-191.8" font-family="Arial" font-size="10.00">FOREIGN KEY (detail_backend_id) REFERENCES services(id) ON DELETE SET NULL</text>
</g>
<!-- public.orgs&#45;&gt;public.services -->
<g id="edge2" class="edge">
<title>public.orgs:email_backend_id&#45;&gt;public.services:id</title>
<path fill="none" stroke="black" d="M347.18,-524.06C423.66,-580.12 420.41,-1297.6 337.45,-1297.6"/>
<polygon fill="black" stroke="black" points="347.19,-524.07 339.28,-516.47 342.16,-522.28 338.08,-520.82 338.08,-520.82 338.08,-520.82 342.16,-522.28 336.26,-524.95 347.19,-524.07"/>
<text text-anchor="start" x="344.45" y="-530.6" font-family="Arial" font-size="10.00">FOREIGN KEY (email_backend_id) REFERENCES services(id) ON DELETE SET NULL</text>
</g>
<!-- public.orgs&#45;&gt;public.services -->
<g id="edge3" class="edge">
<title>public.orgs:event_backend_id&#45;&gt;public.services:id</title>
<path fill="none" stroke="black" d="M345.14,-311.87C392.47,-399.57 389.91,-1297.6 337.45,-1297.6"/>
<polygon fill="black" stroke="black" points="345.16,-311.89 340.7,-301.87 341.18,-308.33 337.95,-305.45 337.95,-305.45 337.95,-305.45 341.18,-308.33 334.7,-308.58 345.16,-311.89"/>
<text text-anchor="start" x="344.45" y="-315" font-family="Arial" font-size="10.00">FOREIGN KEY (event_backend_id) REFERENCES services(id) ON DELETE SET NULL</text>
</g>
<!-- public.orgs&#45;&gt;public.services -->
<g id="edge4" class="edge">
<title>public.orgs:push_backend_id&#45;&gt;public.services:id</title>
<path fill="none" stroke="black" d="M345.48,-157.45C401.03,-249.56 398.35,-1297.6 337.45,-1297.6"/>
<polygon fill="black" stroke="black" points="345.51,-157.47 340.53,-147.7 341.35,-154.13 337.98,-151.42 337.98,-151.42 337.98,-151.42 341.35,-154.13 334.9,-154.72 345.51,-157.47"/>
<text text-anchor="start" x="344.45" y="-161" font-family="Arial" font-size="10.00">FOREIGN KEY (push_backend_id) REFERENCES services(id) ON DELETE SET NULL</text>
</g>
<!-- public.orgs&#45;&gt;public.services -->
<g id="edge5" class="edge">
<title>public.orgs:storage_backend_id&#45;&gt;public.services:id</title>
<path fill="none" stroke="black" d="M345.37,-219.25C397.6,-309.91 394.97,-1297.6 337.45,-1297.6"/>
<polygon fill="black" stroke="black" points="345.37,-219.24 340.6,-209.37 341.28,-215.81 337.97,-213.03 337.97,-213.03 337.97,-213.03 341.28,-215.81 334.82,-216.26 345.37,-219.24"/>
<text text-anchor="start" x="344.45" y="-222.6" font-family="Arial" font-size="10.00">FOREIGN KEY (storage_backend_id) REFERENCES services(id) ON DELETE SET NULL</text>
</g>
<!-- public.orgs&#45;&gt;public.services -->
<g id="edge6" class="edge">
<title>public.orgs:transactional_email_backend_id&#45;&gt;public.services:id</title>
<path fill="none" stroke="black" d="M345.58,-64.68C406.17,-158.15 403.46,-1297.6 337.45,-1297.6"/>
<polygon fill="black" stroke="black" points="345.73,-64.79 340.42,-55.2 341.46,-61.6 337.99,-59 337.99,-59 337.99,-59 341.46,-61.6 335.02,-62.4 345.73,-64.79"/>
<text text-anchor="start" x="344.45" y="-68.6" font-family="Arial" font-size="10.00">FOREIGN KEY (transactional_email_backend_id) REFERENCES services(id) ON DELETE SET NULL</text>
</g>
</g>
</svg>
