<?xml version="1.0" encoding="UTF-8" standalone="no"?>
<!DOCTYPE svg PUBLIC "-//W3C//DTD SVG 1.1//EN"
 "http://www.w3.org/Graphics/SVG/1.1/DTD/svg11.dtd">
<!-- Generated by graphviz version 12.1.2 (20240928.0832)
 -->
<!-- Title: public.audit_log Pages: 1 -->
<svg width="390pt" height="321pt"
 viewBox="0.00 0.00 389.85 320.80" xmlns="http://www.w3.org/2000/svg" xmlns:xlink="http://www.w3.org/1999/xlink">
<g id="graph0" class="graph" transform="scale(1 1) rotate(0) translate(4 316.8)">
<title>public.audit_log</title>
<polygon fill="white" stroke="none" points="-4,4 -4,-316.8 385.85,-316.8 385.85,4 -4,4"/>
<!-- public.audit_log -->
<g id="node1" class="node">
<title>public.audit_log</title>
<polygon fill="#efefef" stroke="none" points="46.2,-231 46.2,-266.6 335.65,-266.6 335.65,-231 46.2,-231"/>
<polygon fill="none" stroke="black" points="46.2,-231 46.2,-266.6 335.65,-266.6 335.65,-231 46.2,-231"/>
<text text-anchor="start" x="69.94" y="-244.4" font-family="Arial Bold" font-size="18.00">public.audit_log</text>
<text text-anchor="start" x="187.42" y="-244.4" font-family="Arial" font-size="14.00">    </text>
<text text-anchor="start" x="218.54" y="-244.4" font-family="Arial" font-size="14.00" fill="#666666">[BASE TABLE]</text>
<polygon fill="none" stroke="black" points="46.2,-200.2 46.2,-231 335.65,-231 335.65,-200.2 46.2,-200.2"/>
<text text-anchor="start" x="53.2" y="-212.4" font-family="Arial" font-size="14.00">id </text>
<text text-anchor="start" x="67.99" y="-212.4" font-family="Arial" font-size="14.00" fill="#666666">[uuid]</text>
<polygon fill="none" stroke="black" points="46.2,-169.4 46.2,-200.2 335.65,-200.2 335.65,-169.4 46.2,-169.4"/>
<text text-anchor="start" x="53.2" y="-181.6" font-family="Arial" font-size="14.00">actor_id </text>
<text text-anchor="start" x="106.9" y="-181.6" font-family="Arial" font-size="14.00" fill="#666666">[varchar(255)]</text>
<polygon fill="none" stroke="black" points="46.2,-138.6 46.2,-169.4 335.65,-169.4 335.65,-138.6 46.2,-138.6"/>
<text text-anchor="start" x="53.2" y="-150.8" font-family="Arial" font-size="14.00">resource </text>
<text text-anchor="start" x="111.56" y="-150.8" font-family="Arial" font-size="14.00" fill="#666666">[varchar(255)]</text>
<polygon fill="none" stroke="black" points="46.2,-107.8 46.2,-138.6 335.65,-138.6 335.65,-107.8 46.2,-107.8"/>
<text text-anchor="start" x="53.2" y="-120" font-family="Arial" font-size="14.00">resource_id </text>
<text text-anchor="start" x="130.24" y="-120" font-family="Arial" font-size="14.00" fill="#666666">[varchar(255)]</text>
<polygon fill="none" stroke="black" points="46.2,-77 46.2,-107.8 335.65,-107.8 335.65,-77 46.2,-77"/>
<text text-anchor="start" x="53.2" y="-89.2" font-family="Arial" font-size="14.00">changeset </text>
<text text-anchor="start" x="121.7" y="-89.2" font-family="Arial" font-size="14.00" fill="#666666">[jsonb]</text>
<polygon fill="none" stroke="black" points="46.2,-46.2 46.2,-77 335.65,-77 335.65,-46.2 46.2,-46.2"/>
<text text-anchor="start" x="53.2" y="-58.4" font-family="Arial" font-size="14.00">inserted_at </text>
<text text-anchor="start" x="126.36" y="-58.4" font-family="Arial" font-size="14.00" fill="#666666">[timestamp(0) without time zone]</text>
<polygon fill="none" stroke="black" stroke-width="3" points="44.7,-44.7 44.7,-268.1 337.15,-268.1 337.15,-44.7 44.7,-44.7"/>
</g>
</g>
</svg>
